# AST/ASF file generated using VICON BodyLanguage
# -----------------------------------------------
:version 1.10
:name VICON
:units
  mass 1.0
  length 0.45
  angle deg
:documentation
   .ast/.asf automatically generated from VICON data using
   VICON BodyBuilder and BodyLanguage model FoxedUp or BRILLIANT.MOD
:root
   order TX TY TZ RX RY RZ
   axis XYZ
   position 0 0 0  
   orientation 0 0 0 
:bonedata
  begin
     id 1 
     name lhipjoint
     direction 0.584852 -0.759097 0.285867 
     length 2.43633 
     axis 0 0 0  XYZ
  end
  begin
     id 2 
     name lfemur
     direction 0.34202 -0.939693 0  
     length 7.14704  
     axis 0 0 20  XYZ
    dof rx ry rz
    limits (-160.0 20.0)
           (-70.0 70.0)
           (-60.0 70.0)
  end
  begin
     id 3 
     name ltibia
     direction 0.342022 -0.939692 0   
     length 7.68483   
     axis 0 0 20   XYZ
    dof rx
    limits (-10.0 170.0)
  end
  begin
     id 4 
     name lfoot
     direction 0.0999605 -0.274639 0.956337   
     length 2.40452   
     axis -90 7.62852e-016 20   XYZ
    dof rx rz
    limits (-45.0 90.0)
           (-70.0 20.0)
  end
  begin
     id 5 
     name ltoes
     direction 1.53468e-011 -4.21881e-011 1   
     length 1.19837   
     axis -90 7.62852e-016 20   XYZ
    dof rx
    limits (-90.0 20.0)
  end
  begin
     id 6 
     name rhipjoint
     direction -0.569886 -0.769002 0.289597   
     length 2.40495  
     axis 0 0 0  XYZ 
  end
  begin
     id 7 
     name rfemur
     direction -0.34202 -0.939693 0   
     length 7.45086   
     axis 0 0 -20   XYZ
    dof rx ry rz
    limits (-160.0 20.0)
           (-70.0 70.0)
           (-70.0 60.0)
  end
  begin
     id 8 
     name rtibia
     direction -0.34202 -0.939693 0   
     length 7.76831   
     axis 0 0 -20   XYZ
    dof rx
    limits (-10.0 170.0)
 end
 begin
     id 9 
     name rfoot
     direction -0.0798572 -0.219406 0.97236   
     length 2.35911  
     axis -90 -7.62852e-016 -20   XYZ
    dof rx rz
    limits (-45.0 90.0)
           (-20.0 70.0)
  end
  begin
     id 10 
     name rtoes
     direction -1.53469e-011 -4.21728e-011 1   
     length 1.18261   
     axis -90 -7.62852e-016 -20   XYZ
    dof rx
    limits (-90.0 20.0)
  end
  begin
     id 11 
     name lowerback
     direction 0.0242088 0.999437 0.0232389   
     length 2.1561   
     axis 0 0 0   XYZ
    dof rx ry rz
    limits (-20.0 45.0)
           (-30.0 30.0)
           (-30.0 30.0)
  end
  begin
     id 12 
     name upperback
     direction -0.0356893 0.999013 -0.0264323   
     length 2.14431   
     axis 0 0 0   XYZ
    dof rx ry rz
    limits (-20.0 45.0)
           (-30.0 30.0)
           (-30.0 30.0)
  end
  begin
     id 13 
     name thorax
     direction -0.0472163 0.998194 -0.0371284   
     length 2.16169   
     axis 0 0 0   XYZ
    dof rx ry rz
    limits (-20.0 45.0)
           (-30.0 30.0)
           (-30.0 30.0)
  end
  begin
     id 14 
     name lowerneck
     direction 0.00863244 0.999921 0.00911972   
     length 1.58651   
     axis 0 0 0   XYZ
    dof rx ry rz
    limits (-20.0 45.0)
           (-30.0 30.0)
           (-30.0 30.0)
  end
  begin
     id 15 
     name upperneck
     direction 0.149523 0.979068 -0.138086   
     length 1.57486   
     axis 0 0 0   XYZ
    dof rx ry rz
    limits (-20.0 45.0)
           (-30.0 30.0)
           (-30.0 30.0)
  end
  begin
     id 16
     name head
     direction 0.0445219 0.997708 -0.0509576  
     length 1.6019  
     axis 0 0 0   XYZ
    dof rx ry rz
    limits (-20.0 45.0)
           (-30.0 30.0)
           (-30.0 30.0)
  end
  begin
     id 17 
     name lclavicle
     direction 0.911271 0.381667 -0.154644  
     length 3.80848  
     axis 0 0 0   XYZ
    dof ry rz
    limits (-20.0 10.0)
           (0.0 20.0)
  end
  begin
     id 18 
     name lhumerus
     direction 1 -4.49003e-011 2.1308e-027   
     length 5.19069   
     axis 180 -30 -90   XYZ
    dof rx ry rz
    limits (-60.0 90.0)
           (-90.0 90.0)
           (-90.0 90.0)
  end
  begin
     id 19
     name lradius
     direction 1 -4.48914e-011 4.01554e-027   
     length 3.30016   
     axis 180 -30 -90   XYZ
    dof rx
    limits (-10.0 170.0)
  end
  begin
     id 20
     name lwrist
     direction 1 -4.49003e-011 1.1934e-026   
     length 1.65008   
     axis -8.46377e-015 90 90   XYZ
    dof ry
    limits (-180.0 0.0)
 end
  begin
     id 21 
     name lhand
     direction 1 -4.49034e-011 2.38659e-026   
     length 0.707698   
     axis -1.52313e-014 90 90   XYZ
    dof rx rz
    limits (-90.0 90.0)
           (-45.0 45.0)
  end
  begin
     id 22 
     name lfingers
     direction 1 -4.48691e-011 4.77775e-026   
     length 0.570564   
     axis -3.04623e-014 90 90   XYZ
    dof rx
    limits (0.0 90.0)
  end
  begin
     id 23
     name lthumb
     direction 0.707107 -6.34832e-011 0.707107   
     length 0.819219   
     axis -90 45 -1.62303e-014   XYZ
    dof rx rz
    limits (-45.0 45.0)
           (-45.0 45.0)
  end
  begin
     id 24 
     name rclavicle
     direction -0.815579 0.573708 -0.0754329   
     length 3.54371  
     axis 0 0 0   XYZ 
    dof ry rz
    limits (-10.0 20.0)
           (-20.0 0.0)
  end
  begin
     id 25 
     name rhumerus
     direction -1 -4.48956e-011 3.05351e-028  
     length 5.23924   
     axis 180 30 90   XYZ
    dof rx ry rz
    limits (-90.0 60.0)
           (-90.0 90.0)
           (-90.0 90.0)
  end
  begin
     id 26 
     name rradius
     direction -1 -4.49013e-011 3.53849e-027   
     length 3.32953   
     axis 180 30 90   XYZ
    dof rx
    limits (-10.0 170.0)
  end
  begin
     id 27 
     name rwrist
     direction -1 -4.48901e-011 1.19374e-026   
     length 1.66477   
     axis -8.46377e-015 -90 -90   XYZ
    dof ry
    limits (-180.0 0.0)
  end
  begin
     id 28
     name rhand
     direction -1 -4.48877e-011 2.38764e-026   
     length 0.607414   
     axis -1.52313e-014 -90 -90   XYZ
    dof rx rz
    limits (-90.0 90.0)
           (-45.0 45.0)
  end
  begin
     id 29
     name rfingers
     direction -1 -4.48882e-011 4.77521e-026   
     length 0.489712   
     axis -3.04623e-014 -90 -90   XYZ
    dof rx
    limits (0.0 90.0)
  end
  begin
     id 30
     name rthumb
     direction -0.707107 -6.34974e-011 0.707107   
     length 0.703132   
     axis -90 -45 1.62303e-014   XYZ
    dof rx rz
    limits (-45.0 45.0)
           (-45.0 45.0)
  end
:hierarchy
  begin
    root lhipjoint rhipjoint lowerback
    lhipjoint lfemur
    lfemur ltibia
    ltibia lfoot
    lfoot ltoes
    rhipjoint rfemur
    rfemur rtibia
    rtibia rfoot
    rfoot rtoes
    lowerback upperback
    upperback thorax
    thorax lowerneck lclavicle rclavicle
    lowerneck upperneck
    upperneck head
    lclavicle lhumerus
    lhumerus lradius
    lradius lwrist
    lwrist lhand lthumb
    lhand lfingers
    rclavicle rhumerus
    rhumerus rradius
    rradius rwrist
    rwrist rhand rthumb
    rhand rfingers
  end

#!OML:ASF E:\VariousWalksJay\Project 1\Capture day 1\Session 1\Actor2.ASF
:FULLY-SPECIFIED
:DEGREES
360
root 20.5419 15.5542 -18.9638 5.94328 -35.2993 -2.95221
lowerback 16.3011 -3.32328 5.80926
upperback 16.3821 -4.2897 -1.74027
thorax 8.2658 -1.67937 -4.7593
lowerneck 9.35407 -0.0464324 -0.836561
upperneck -2.29691 0.0374931 4.31088
head -2.36434 -0.120922 1.53414
rclavicle 3.37934e-014 -3.97569e-015
rhumerus -18.6912 26.3254 -82.5691
rradius 73.2384
rwrist 4.05264
rhand -24.0125 -8.64875
rfingers 7.12502
rthumb 2.46529 -38.6143
lclavicle 3.37934e-014 -3.97569e-015
lhumerus 33.514 -16.9617 65.735
lradius 63.7713
lwrist 67.2158
lhand -37.3657 15.1168
lfingers 7.12502
lthumb -10.4274 44.8382
rfemur -41.9995 0.259942 32.2737
rtibia 67.75
rfoot -31.1138 -18.0979
rtoes 5.73375
lfemur -52.7394 14.1956 -11.7239
ltibia 113.251
lfoot -21.0733 -6.89714
ltoes -25.6009
361
root 20.4848 15.5461 -18.9008 5.40214 -35.391 -3.13367
lowerback 16.1729 -3.27894 5.84261
upperback 16.4204 -4.24348 -1.7159
thorax 8.3864 -1.6509 -4.76655
lowerneck 9.40291 -0.0604955 -0.859092
upperneck -1.65107 -0.011277 4.26373
head -2.15605 -0.137845 1.51829
rclavicle -1.90833e-014 3.02153e-014
rhumerus -18.956 26.6296 -82.6236
rradius 73.1156
rwrist 4.03234
rhand -23.892 -8.60892
rfingers 7.12502
rthumb 2.58163 -38.573
lclavicle -1.90833e-014 3.02153e-014
lhumerus 33.1109 -17.1118 65.7792
lradius 63.7026
lwrist 67.3229
lhand -37.3369 15.1617
lfingers 7.12502
lthumb -10.3997 44.8845
rfemur -40.913 0.0849802 32.5118
rtibia 67.7974
rfoot -31.6058 -18.0833
rtoes 5.51499
lfemur -53.5705 13.91 -11.7101
ltibia 112.777
lfoot -21.124 -6.86676
ltoes -25.5544
362
root 20.4266 15.5374 -18.8375 4.87136 -35.4849 -3.3156
lowerback 16.028 -3.23267 5.86022
upperback 16.4446 -4.19622 -1.68582
thorax 8.50019 -1.62404 -4.75889
lowerneck 9.44465 -0.069737 -0.883803
upperneck -0.989992 -0.0543364 4.22069
head -1.9431 -0.152362 1.50393
rclavicle 2.8625e-014 -2.10712e-014
rhumerus -19.2413 26.9282 -82.6922
rradius 73.006
rwrist 4.01707
rhand -23.7901 -8.60119
rfingers 7.12502
rthumb 2.6801 -38.5641
lclavicle 2.8625e-014 -2.10712e-014
lhumerus 32.6966 -17.2778 65.8086
lradius 63.6284
lwrist 67.4524
lhand -37.3186 15.1686
lfingers 7.12502
lthumb -10.382 44.8923
rfemur -39.8284 -0.0490596 32.7486
rtibia 67.8347
rfoot -32.0977 -18.1281
rtoes 5.32339
lfemur -54.3381 13.5845 -11.7116
ltibia 112.203
lfoot -21.163 -6.77343
ltoes -25.6224
363
root 20.3673 15.5289 -18.7723 4.34917 -35.5982 -3.50369
lowerback 15.8736 -3.18022 5.87498
upperback 16.4516 -4.14064 -1.6511
thorax 8.60005 -1.59415 -4.7448
lowerneck 9.48734 -0.0759413 -0.908764
upperneck -0.320536 -0.0937576 4.17817
head -1.72915 -0.165572 1.48982
rclavicle -1.35174e-014 -7.55382e-015
rhumerus -19.5629 27.215 -82.7749
rradius 72.9137
rwrist 4.00176
rhand -23.7059 -8.62013
rfingers 7.12502
rthumb 2.76135 -38.582
lclavicle -1.35174e-014 -7.55382e-015
lhumerus 32.2699 -17.4707 65.8218
lradius 63.5502
lwrist 67.6075
lhand -37.3184 15.1453
lfingers 7.12502
lthumb -10.3818 44.869
rfemur -38.7291 -0.126272 32.9842
rtibia 67.8549
rfoot -32.5882 -18.231
rtoes 5.13285
lfemur -55.0169 13.2478 -11.7249
ltibia 111.535
lfoot -21.2089 -6.58807
ltoes -25.8006
364
root 20.307 15.52 -18.7063 3.85048 -35.7249 -3.70844
lowerback 15.6906 -3.12707 5.90516
upperback 16.4511 -4.08382 -1.62007
thorax 8.70588 -1.56145 -4.74443
lowerneck 9.52731 -0.0759953 -0.927823
upperneck 0.336909 -0.123833 4.14262
head -1.52036 -0.17495 1.47691
rclavicle -3.18055e-014 2.78299e-014
rhumerus -19.8957 27.4781 -82.8845
rradius 72.8311
rwrist 3.9832
rhand -23.6507 -8.67726
rfingers 7.12502
rthumb 2.81466 -38.6384
lclavicle -3.18055e-014 2.78299e-014
lhumerus 31.8475 -17.6773 65.8041
lradius 63.4694
lwrist 67.7737
lhand -37.3144 15.1613
lfingers 7.12502
lthumb -10.3779 44.8852
rfemur -37.629 -0.139111 33.233
rtibia 67.8581
rfoot -33.0638 -18.4094
rtoes 4.88874
lfemur -55.6273 12.9088 -11.7357
ltibia 110.792
lfoot -21.2566 -6.31993
ltoes -26.0208
365
root 20.2458 15.5117 -18.6386 3.37131 -35.8492 -3.93394
lowerback 15.4697 -3.08429 5.9776
upperback 16.452 -4.03896 -1.60029
thorax 8.83048 -1.5286 -4.78066
lowerneck 9.55765 -0.0677939 -0.936395
upperneck 0.981018 -0.141396 4.11359
head -1.31588 -0.178733 1.46413
rclavicle -6.08281e-014 4.41302e-014
rhumerus -20.2338 27.7135 -83.0243
rradius 72.7602
rwrist 3.95921
rhand -23.611 -8.74733
rfingers 7.12502
rthumb 2.85299 -38.708
lclavicle -6.08281e-014 4.41302e-014
lhumerus 31.4358 -17.8958 65.7421
lradius 63.3891
lwrist 67.9447
lhand -37.3219 15.1595
lfingers 7.12502
lthumb -10.3851 44.883
rfemur -36.5175 -0.101023 33.4975
rtibia 67.8407
rfoot -33.5323 -18.651
rtoes 4.61971
lfemur -56.1602 12.549 -11.7414
ltibia 109.982
lfoot -21.3143 -5.95384
ltoes -26.291
366
root 20.1839 15.503 -18.5707 2.91609 -35.9565 -4.1592
lowerback 15.1965 -3.05505 6.0756
upperback 16.4548 -4.01231 -1.59905
thorax 8.98188 -1.49933 -4.85249
lowerneck 9.5732 -0.0486032 -0.93124
upperneck 1.60957 -0.1425 4.09546
head -1.11553 -0.174873 1.45219
rclavicle 7.15625e-014 -3.4191e-014
rhumerus -20.5652 27.9126 -83.2024
rradius 72.696
rwrist 3.93591
rhand -23.5906 -8.80982
rfingers 7.12502
rthumb 2.87279 -38.7702
lclavicle 7.15625e-014 -3.4191e-014
lhumerus 31.0427 -18.1127 65.6365
lradius 63.3079
lwrist 68.1031
lhand -37.3233 15.1745
lfingers 7.12502
lthumb -10.3865 44.8979
rfemur -35.4253 -0.0188725 33.7676
rtibia 67.8071
rfoot -33.9814 -18.9754
rtoes 4.28118
lfemur -56.6524 12.1602 -11.7592
ltibia 109.121
lfoot -21.3703 -5.51518
ltoes -26.5121
367
root 20.1215 15.4949 -18.5017 2.48386 -36.0461 -4.39817
lowerback 14.858 -3.0364 6.2159
upperback 16.472 -4.00134 -1.61173
thorax 9.1829 -1.46977 -4.9661
lowerneck 9.56658 -0.0253381 -0.904427
upperneck 2.22347 -0.135727 4.08186
head -0.91738 -0.167165 1.43802
rclavicle 1.27222e-014 4.6118e-014
rhumerus -20.876 28.0616 -83.4032
rradius 72.639
rwrist 3.90936
rhand -23.574 -8.88176
rfingers 7.12502
rthumb 2.88878 -38.8419
lclavicle 1.27222e-014 4.6118e-014
lhumerus 30.6872 -18.3354 65.4841
lradius 63.2311
lwrist 68.2512
lhand -37.3158 15.2291
lfingers 7.12502
lthumb -10.3793 44.9529
rfemur -34.3344 0.100685 34.0542
rtibia 67.7506
rfoot -34.4169 -19.3718
rtoes 3.89355
lfemur -57.0892 11.7368 -11.7757
ltibia 108.212
lfoot -21.4216 -5.02875
ltoes -26.629
368
root 20.0581 15.4873 -18.4328 2.07999 -36.1151 -4.63479
lowerback 14.4336 -3.02472 6.37537
upperback 16.5074 -4.00535 -1.63961
thorax 9.45058 -1.44071 -5.11182
lowerneck 9.52658 0.00235541 -0.859622
upperneck 2.82639 -0.121245 4.07479
head -0.718338 -0.155384 1.4229
rclavicle -1.43125e-014 3.26007e-014
rhumerus -21.1451 28.1587 -83.621
rradius 72.585
rwrist 3.88297
rhand -23.5503 -8.9426
rfingers 7.12502
rthumb 2.9117 -38.9025
lclavicle -1.43125e-014 3.26007e-014
lhumerus 30.3809 -18.5521 65.283
lradius 63.1593
lwrist 68.3852
lhand -37.3152 15.2745
lfingers 7.12502
lthumb -10.3787 44.9984
rfemur -33.2651 0.259181 34.3499
rtibia 67.6688
rfoot -34.8238 -19.8518
rtoes 3.42535
lfemur -57.4964 11.279 -11.8009
ltibia 107.264
lfoot -21.4572 -4.52851
ltoes -26.6381
369
root 19.994 15.4805 -18.3634 1.69402 -36.1591 -4.86112
lowerback 14.0199 -3.01633 6.52454
upperback 16.5077 -4.01183 -1.66003
thorax 9.67188 -1.41582 -5.24113
lowerneck 9.48679 0.0253619 -0.805099
upperneck 3.45837 -0.113889 4.05754
head -0.510982 -0.146714 1.40351
rclavicle -1.63003e-014 -1.11319e-014
rhumerus -21.4742 28.21 -83.8592
rradius 72.5467
rwrist 3.86312
rhand -23.5309 -8.99974
rfingers 7.12502
rthumb 2.93042 -38.9594
lclavicle -1.63003e-014 -1.11319e-014
lhumerus 30.0383 -18.7902 65.1133
lradius 63.0984
lwrist 68.4955
lhand -37.3039 15.3658
lfingers 7.12502
lthumb -10.3678 45.0902
rfemur -32.2099 0.442407 34.6471
rtibia 67.5609
rfoot -35.2149 -20.3926
rtoes 2.93117
lfemur -57.8682 10.7856 -11.8409
ltibia 106.279
lfoot -21.4744 -4.05357
ltoes -26.5374
370
root 19.9293 15.4768 -18.2936 1.24832 -36.1829 -5.06945
lowerback 13.692 -3.01203 6.65928
upperback 16.4973 -4.01879 -1.67899
thorax 9.83457 -1.39535 -5.35538
lowerneck 9.45373 0.0394826 -0.739779
upperneck 4.10464 -0.118391 4.03222
head -0.300987 -0.143701 1.38072
rclavicle -3.53837e-014 2.14687e-014
rhumerus -21.8482 28.2061 -84.1122
rradius 72.5251
rwrist 3.85207
rhand -23.5013 -9.04396
rfingers 7.12502
rthumb 2.95901 -39.0032
lclavicle -3.53837e-014 2.14687e-014
lhumerus 29.6799 -19.0501 64.9705
lradius 63.0466
lwrist 68.587
lhand -37.292 15.4558
lfingers 7.12502
lthumb -10.3563 45.1808
rfemur -31.0761 0.622009 34.9353
rtibia 67.4161
rfoot -35.6015 -20.9679
rtoes 2.43028
lfemur -58.1004 10.2531 -11.8885
ltibia 105.24
lfoot -21.4904 -3.63582
ltoes -26.3778
371
root 19.8637 15.4736 -18.2224 0.855045 -36.2029 -5.25431
lowerback 13.33 -2.99505 6.7792
upperback 16.441 -4.00881 -1.69289
thorax 9.96406 -1.36931 -5.45647
lowerneck 9.44277 0.0388896 -0.66641
upperneck 4.76388 -0.142622 4.00124
head -0.0910579 -0.150507 1.35615
rclavicle -8.50798e-014 4.05521e-014
rhumerus -22.2925 28.1389 -84.3833
rradius 72.5245
rwrist 3.85394
rhand -23.4617 -9.08348
rfingers 7.12502
rthumb 2.99719 -39.0422
lclavicle -8.50798e-014 4.05521e-014
lhumerus 29.2855 -19.3386 64.8782
lradius 63.0028
lwrist 68.6547
lhand -37.276 15.544
lfingers 7.12502
lthumb -10.3409 45.2697
rfemur -30.0065 0.832403 35.2111
rtibia 67.2536
rfoot -35.9612 -21.5687
rtoes 1.91303
lfemur -58.3493 9.72385 -11.9703
ltibia 104.176
lfoot -21.4894 -3.30996
ltoes -26.1459
372
root 19.7973 15.472 -18.1511 0.47194 -36.1998 -5.42008
lowerback 13.0151 -2.96865 6.86816
upperback 16.3394 -3.98191 -1.68818
thorax 10.0173 -1.3431 -5.51552
lowerneck 9.46127 0.0179606 -0.58186
upperneck 5.43246 -0.193199 3.95263
head 0.116873 -0.170357 1.32567
rclavicle 1.55052e-014 1.82882e-014
rhumerus -22.8211 28.0052 -84.6598
rradius 72.551
rwrist 3.86647
rhand -23.4247 -9.11771
rfingers 7.12502
rthumb 3.033 -39.0759
lclavicle 1.55052e-014 1.82882e-014
lhumerus 28.8396 -19.6616 64.8859
lradius 62.9613
lwrist 68.6769
lhand -37.2399 15.6551
lfingers 7.12502
lthumb -10.3061 45.3825
rfemur -28.9488 1.04683 35.4789
rtibia 67.0708
rfoot -36.327 -22.1448
rtoes 1.49996
lfemur -58.5635 9.18157 -12.0674
ltibia 103.074
lfoot -21.472 -3.11275
ltoes -25.9008
373
root 19.7303 15.4715 -18.0789 0.107812 -36.1887 -5.56443
lowerback 12.7358 -2.93218 6.93478
upperback 16.1905 -3.93676 -1.67177
thorax 9.99762 -1.31464 -5.54547
lowerneck 9.50654 -0.0187062 -0.491918
upperneck 6.11028 -0.264361 3.88887
head 0.323276 -0.200531 1.29085
rclavicle -4.45278e-014 2.38542e-014
rhumerus -23.4335 27.8146 -84.9446
rradius 72.6044
rwrist 3.89139
rhand -23.3862 -9.13786
rfingers 7.12502
rthumb 3.07012 -39.0955
lclavicle -4.45278e-014 2.38542e-014
lhumerus 28.3385 -20.015 64.9801
lradius 62.9267
lwrist 68.6694
lhand -37.2114 15.6935
lfingers 7.12502
lthumb -10.2786 45.4224
rfemur -27.9156 1.26242 35.7325
rtibia 66.877
rfoot -36.6898 -22.6911
rtoes 1.12617
lfemur -58.7481 8.64944 -12.1877
ltibia 101.94
lfoot -21.4546 -3.02964
ltoes -25.6947
